# xmcd
#
# Track frame offsets:
#	150
#	14271
#	24526
#	37701
#	54438
#	69969
#	83725
#	102100
#
# Disc length: 1523 seconds
#
# Revision: 3
# Processed by: cddbd v1.5.2PL0 Copyright (c) Steve Scherf et al.
# Submitted via: audiograbber 1.83.01
#
DISCID=4f05f108
DTITLE=Various Artist - New Country - Volume 5 - Number 4
DYEAR=1998
DGENRE=Country
TTITLE0=Paul Burch And WPA Ball Club - 13 Nights
TTITLE1=John Denver - Steel Rails
TTITLE2=Gail Davies - Boys Like You
TTITLE3=Robert Ellis Orrall - I Hope I'm Satisfied
TTITLE4=David Mallett - I Hate To See This Town Go Down
TTITLE5=The Woodys - Second Wind
TTITLE6=Mike Ireland And Holler - Worst Of All
TTITLE7=Blue Highway - I'd Rather Be A Lonesome Pine
EXTD=
EXTT0=
EXTT1=
EXTT2=
EXTT3=
EXTT4=
EXTT5=
EXTT6=
EXTT7=
PLAYORDER=
